<svg id="Group_1981" data-name="Group 1981" xmlns="http://www.w3.org/2000/svg" xmlns:xlink="http://www.w3.org/1999/xlink" width="20.023" height="20.065" viewBox="0 0 20.023 20.065">
  <defs>
    <clipPath id="clip-path">
      <rect id="Rectangle_40" data-name="Rectangle 40" width="20.023" height="20.065" fill="#E82D55"/>
    </clipPath>
  </defs>
  <g id="Group_1980" data-name="Group 1980" transform="translate(0 0)" clip-path="url(#clip-path)">
    <path id="Path_2117" data-name="Path 2117" d="M13.324,20.065H13.2c-4.338,0-6.428-1.71-6.789-5.539a.734.734,0,0,1,.664-.8.747.747,0,0,1,.8.664c.283,3.067,1.728,4.21,5.333,4.21h.127c3.976,0,5.383-1.407,5.383-5.383V6.848c0-3.976-1.407-5.383-5.383-5.383h-.127c-3.623,0-5.07,1.163-5.333,4.289A.74.74,0,0,1,6.4,5.627C6.73,1.739,8.829,0,13.2,0h.127c4.8,0,6.847,2.051,6.847,6.848v6.369c0,4.8-2.051,6.848-6.847,6.848" transform="translate(-0.148 0)" fill="#E82D55"/>
    <path id="Path_2118" data-name="Path 2118" d="M12.967,10.985H1.85a.733.733,0,1,1,0-1.465H12.967a.733.733,0,1,1,0,1.465" transform="translate(-0.026 -0.22)" fill="#E82D55"/>
    <path id="Path_2119" data-name="Path 2119" d="M4,14.181a.725.725,0,0,1-.518-.215L.212,10.693a.737.737,0,0,1,0-1.036L3.485,6.385A.732.732,0,1,1,4.52,7.42L1.765,10.175,4.52,12.93a.737.737,0,0,1,0,1.036A.709.709,0,0,1,4,14.181" transform="translate(0 -0.143)" fill="#E82D55"/>
  </g>
</svg>
